<?xml version="1.0" standalone="no"?>
<!DOCTYPE svg PUBLIC "-//W3C//DTD SVG 20010904//EN"
 "http://www.w3.org/TR/2001/REC-SVG-20010904/DTD/svg10.dtd">
<svg version="1.0" xmlns="http://www.w3.org/2000/svg"
 width="1824.000000pt" height="1824.000000pt" viewBox="0 0 1824.000000 1824.000000"
 preserveAspectRatio="xMidYMid meet">
<metadata>
Created by potrace 1.14, written by Peter Selinger 2001-2017
</metadata>
<g transform="translate(0.000000,1824.000000) scale(0.100000,-0.100000)"
fill="#000000" stroke="none">
<path d="M5965 13149 c-75 -7 -160 -32 -182 -55 -8 -8 -17 -14 -21 -14 -9 0
-69 -57 -99 -93 -33 -39 -58 -93 -89 -188 -14 -46 -29 -88 -33 -94 -3 -5 -20
-53 -37 -105 -18 -52 -48 -138 -67 -190 -19 -52 -47 -129 -62 -170 -15 -41
-32 -86 -38 -100 -5 -14 -11 -29 -12 -35 -3 -9 -35 -91 -58 -145 -5 -14 -11
-29 -13 -35 -1 -5 -10 -28 -20 -50 -10 -22 -18 -42 -19 -45 -4 -14 -19 -51
-46 -114 -16 -38 -29 -75 -29 -82 0 -8 -5 -14 -12 -14 -6 0 -9 -3 -6 -6 6 -5
-9 -41 -63 -161 -10 -23 -19 -44 -19 -46 0 -2 -14 -35 -31 -73 -17 -38 -31
-69 -30 -69 1 0 -15 -34 -35 -75 -20 -41 -36 -76 -35 -78 1 -1 -12 -26 -28
-56 -15 -29 -33 -66 -39 -82 -28 -71 -240 -469 -329 -618 -29 -49 -53 -92 -53
-97 0 -5 -4 -9 -10 -9 -5 0 -10 -7 -10 -15 0 -8 -3 -15 -7 -15 -5 0 -17 -18
-27 -40 -11 -22 -23 -40 -28 -40 -4 0 -8 -4 -8 -10 0 -5 -29 -51 -65 -102 -36
-51 -68 -100 -72 -108 -4 -8 -10 -17 -14 -20 -4 -3 -34 -41 -67 -85 -56 -75
-73 -95 -139 -170 -88 -101 -236 -245 -308 -300 -14 -11 -31 -25 -38 -30 -28
-24 -106 -75 -115 -75 -6 0 -12 -4 -14 -9 -2 -7 -100 -62 -118 -66 -3 -1 -18
-7 -35 -14 -176 -74 -351 -85 -525 -33 -30 9 -57 17 -60 17 -30 8 -202 93
-210 103 -3 4 -17 13 -32 21 -15 8 -37 22 -47 33 -11 10 -23 18 -25 18 -6 0
-27 17 -72 55 -13 11 -37 31 -55 45 -41 31 -198 190 -264 266 -27 31 -54 62
-60 68 -22 24 -123 155 -171 221 -100 137 -167 238 -247 370 -27 44 -62 103
-79 130 -17 28 -44 75 -61 105 -55 101 -59 108 -203 380 -10 19 -18 37 -19 40
0 3 -17 39 -37 80 -57 115 -128 271 -128 281 0 5 -4 9 -10 9 -5 0 -10 6 -10
13 0 17 -63 81 -113 115 -44 30 -142 70 -173 72 -11 0 -49 2 -85 3 -201 10
-381 -135 -426 -343 -5 -26 -4 -124 2 -155 5 -29 107 -339 125 -380 4 -11 31
-90 60 -175 28 -85 55 -164 60 -175 16 -37 72 -214 70 -221 -1 -4 2 -10 7 -13
4 -3 37 -94 72 -201 35 -107 67 -199 70 -205 3 -5 6 -13 7 -17 1 -5 3 -10 4
-13 3 -5 3 -6 15 -50 4 -16 10 -34 13 -40 6 -10 89 -248 96 -275 6 -21 57
-171 67 -195 4 -11 17 -49 29 -85 12 -36 25 -74 30 -85 8 -18 19 -51 26 -80 6
-22 132 -383 136 -391 3 -5 9 -22 13 -39 11 -40 11 -41 34 -105 41 -113 193
-556 198 -575 2 -11 9 -30 14 -42 21 -54 27 -70 40 -113 7 -25 15 -49 17 -54
6 -11 131 -375 136 -396 2 -8 15 -44 29 -80 13 -36 25 -67 25 -70 1 -6 3 -12
42 -125 17 -49 33 -97 35 -105 2 -8 22 -67 45 -130 22 -63 43 -122 45 -130 6
-23 115 -343 125 -365 9 -22 101 -293 105 -310 1 -5 7 -22 12 -36 6 -14 17
-45 24 -70 7 -24 16 -48 19 -54 4 -5 18 -44 30 -85 12 -41 26 -79 31 -84 5 -6
9 -20 9 -32 0 -13 4 -26 10 -29 6 -3 10 -15 10 -26 0 -10 4 -27 9 -37 5 -9 19
-42 32 -72 30 -69 116 -157 191 -193 77 -38 143 -46 346 -44 94 1 172 -2 172
-6 0 -5 5 -5 11 -1 16 10 229 11 229 1 0 -5 5 -5 11 -1 16 10 229 11 229 1 0
-5 5 -5 12 -1 16 10 548 11 548 1 0 -5 5 -5 11 -1 16 9 309 11 309 1 0 -5 5
-5 11 -1 16 9 549 11 549 1 0 -5 5 -5 11 -1 16 10 229 11 229 1 0 -5 5 -5 11
-1 16 10 229 11 229 1 0 -5 5 -5 12 -1 16 10 548 11 548 1 0 -5 5 -5 11 -1 16
9 309 11 309 1 0 -5 5 -5 11 -1 16 9 549 11 549 1 0 -5 5 -5 11 -1 16 10 229
11 229 1 0 -5 5 -5 11 -1 16 10 229 11 229 1 0 -5 5 -5 12 -1 16 10 468 11
468 1 0 -5 5 -5 11 -1 16 10 229 11 229 1 0 -5 5 -5 11 -1 16 10 229 11 229 1
0 -5 5 -5 12 -1 16 10 148 11 148 1 0 -5 5 -5 11 -1 16 10 229 11 229 1 0 -5
5 -5 11 -1 16 10 229 11 229 1 0 -5 5 -5 12 -1 16 10 148 11 148 1 0 -5 5 -5
11 -1 16 10 229 11 229 1 0 -5 5 -5 11 -1 16 10 229 11 229 1 0 -5 5 -5 12 -1
16 10 148 11 148 1 0 -5 5 -5 11 -1 16 10 229 11 229 1 0 -5 5 -5 11 -1 16 10
229 11 229 1 0 -5 5 -5 12 -1 16 10 148 11 148 1 0 -5 5 -5 11 -1 16 10 229
11 229 1 0 -5 5 -5 11 -1 16 10 229 11 229 1 0 -5 5 -5 12 -1 16 10 148 11
148 1 0 -5 5 -5 11 -1 16 10 229 11 229 1 0 -5 5 -5 11 -1 16 10 229 11 229 1
0 -5 5 -5 12 -1 16 10 148 11 148 1 0 -5 5 -5 11 -1 16 10 229 11 229 1 0 -5
5 -5 11 -1 16 10 229 11 229 1 0 -5 5 -5 12 -1 16 10 148 11 148 1 0 -5 5 -5
11 -1 16 10 229 11 229 1 0 -5 5 -5 11 -1 16 10 229 11 229 1 0 -5 5 -5 12 -1
16 10 468 11 468 1 0 -5 5 -5 11 -1 16 10 229 11 229 1 0 -5 5 -5 11 -1 16 10
229 11 229 1 0 -5 5 -5 12 -1 16 10 548 11 548 1 0 -5 5 -5 11 -1 16 9 309 11
309 1 0 -5 5 -5 11 -1 16 9 549 11 549 1 0 -5 5 -5 11 -1 16 10 229 11 229 1
0 -5 5 -5 11 -2 6 4 74 7 152 8 183 0 238 13 334 79 62 42 145 155 142 192 0
5 3 12 8 15 5 3 19 40 32 81 13 41 28 81 34 88 5 6 7 12 4 12 -3 0 8 37 24 83
17 45 32 89 34 97 6 21 74 222 82 240 3 8 7 17 8 20 11 38 84 252 92 270 3 8
7 20 8 25 2 6 35 105 75 220 40 116 73 215 75 220 1 6 5 17 8 25 3 8 13 38 22
65 10 28 21 59 25 70 8 19 22 60 26 78 1 4 2 8 3 10 2 3 50 138 55 152 14 49
42 131 81 240 25 72 47 137 49 145 8 27 67 204 76 225 5 11 23 63 40 115 18
52 36 104 40 115 7 17 19 53 25 75 1 3 4 12 8 20 7 18 147 430 151 445 2 6 6
17 9 25 9 22 97 282 102 300 2 8 18 53 35 100 17 47 33 92 35 100 6 26 105
314 114 335 5 11 16 40 23 65 23 73 159 473 171 500 5 14 11 30 12 35 0 6 4
17 8 25 8 20 138 401 143 420 5 19 122 360 131 380 3 8 7 17 8 20 5 21 18 58
24 75 9 22 61 174 65 190 2 6 6 18 9 28 8 21 16 45 17 52 0 3 7 24 16 47 80
228 -35 465 -266 547 -87 31 -215 24 -303 -17 -114 -53 -166 -115 -275 -332
-51 -102 -115 -225 -142 -275 -27 -49 -63 -117 -80 -150 -18 -33 -36 -64 -40
-70 -4 -5 -23 -37 -40 -70 -18 -33 -38 -66 -44 -74 -13 -16 -32 -49 -45 -77
-5 -11 -23 -41 -40 -66 -17 -25 -31 -51 -31 -57 0 -6 -4 -11 -10 -11 -5 0 -10
-6 -10 -13 0 -8 -9 -22 -20 -32 -11 -10 -17 -22 -14 -26 3 -5 -2 -12 -10 -15
-9 -3 -16 -10 -16 -16 0 -12 -101 -162 -112 -166 -4 -2 -8 -10 -8 -18 0 -8 -4
-14 -8 -14 -5 0 -13 -10 -19 -22 -13 -28 -134 -192 -145 -196 -4 -2 -8 -10 -8
-18 0 -8 -3 -14 -8 -14 -4 0 -27 -27 -51 -60 -24 -33 -47 -60 -51 -60 -5 0
-16 -13 -27 -29 -45 -72 -286 -317 -396 -404 -15 -12 -41 -33 -57 -47 -33 -29
-39 -34 -100 -76 -93 -65 -236 -141 -335 -179 -36 -13 -65 -22 -65 -19 0 2 -8
0 -17 -5 -40 -21 -183 -39 -279 -35 -83 3 -226 33 -293 61 -20 9 -38 15 -41
16 -11 0 -145 72 -148 79 -2 5 -8 8 -13 8 -11 0 -141 87 -181 122 -15 13 -42
34 -60 48 -34 26 -251 241 -303 300 -123 141 -353 454 -429 583 -10 18 -21 34
-25 37 -3 3 -17 26 -31 53 -13 26 -28 47 -32 47 -5 0 -8 4 -8 9 0 5 -19 42
-43 83 -24 40 -59 100 -77 133 -18 33 -44 80 -58 105 -40 71 -203 395 -254
505 -41 88 -63 136 -113 250 -7 17 -25 55 -39 86 -14 31 -26 59 -26 63 0 4 -9
28 -21 54 -11 26 -27 63 -35 82 -9 19 -19 44 -24 55 -15 36 -108 278 -130 340
-12 33 -25 69 -30 80 -20 45 -149 435 -143 435 3 0 0 7 -7 15 -7 8 -9 15 -5
15 4 0 3 6 -2 13 -6 6 -16 35 -22 62 -34 137 -116 245 -232 302 -161 80 -346
52 -479 -73 -59 -55 -98 -128 -139 -264 -18 -58 -44 -136 -57 -175 -14 -38
-25 -71 -25 -72 0 -2 -1 -8 -4 -15 -2 -7 -16 -49 -30 -93 -14 -44 -28 -87 -32
-95 -3 -8 -7 -19 -9 -25 -6 -26 -65 -192 -73 -205 -5 -9 -12 -31 -16 -50 -4
-19 -11 -39 -15 -45 -3 -5 -17 -39 -29 -75 -13 -36 -26 -72 -29 -80 -3 -8 -6
-19 -8 -25 -1 -5 -10 -28 -20 -50 -10 -22 -19 -46 -20 -53 -1 -8 -6 -21 -10
-30 -4 -9 -8 -19 -9 -22 -1 -3 -7 -16 -13 -30 -6 -14 -39 -95 -72 -180 -34
-85 -67 -161 -72 -167 -6 -7 -8 -13 -5 -13 7 0 -93 -227 -181 -410 -25 -52
-46 -97 -47 -100 -4 -18 -169 -332 -214 -408 -17 -29 -31 -55 -31 -57 0 -8
-114 -190 -122 -193 -4 -2 -6 -7 -3 -12 2 -4 -4 -15 -15 -25 -11 -10 -20 -22
-20 -26 0 -22 -242 -347 -325 -437 -108 -117 -214 -217 -296 -278 -82 -62
-201 -134 -211 -128 -4 3 -8 1 -8 -5 0 -8 -18 -18 -55 -27 -5 -2 -37 -12 -70
-24 -32 -11 -84 -24 -115 -29 -53 -8 -203 -7 -245 3 -11 2 -33 7 -50 11 -117
27 -285 108 -420 204 -169 119 -352 295 -536 515 -13 16 -28 34 -34 40 -5 6
-22 27 -37 48 -15 20 -34 42 -41 50 -7 7 -28 36 -47 63 -19 28 -38 52 -41 55
-3 3 -21 28 -39 55 -19 28 -37 52 -42 53 -4 2 -8 9 -8 16 0 7 -8 21 -17 32
-23 25 -83 113 -83 120 0 3 -13 24 -29 47 -40 59 -93 143 -127 202 -15 28 -31
52 -34 55 -3 3 -11 16 -18 30 -6 14 -20 39 -29 55 -75 127 -117 203 -170 304
-18 35 -38 70 -44 78 -6 7 -8 13 -4 13 4 0 2 6 -4 13 -14 18 -201 393 -201
404 0 5 -5 14 -12 21 -6 6 -13 17 -14 24 -1 7 -27 66 -58 131 -31 65 -56 120
-56 122 0 3 -13 33 -28 67 -16 35 -50 115 -77 178 -26 63 -53 129 -60 145 -17
39 -36 85 -46 110 -58 150 -82 212 -104 275 -15 41 -29 82 -32 90 -40 107 -54
147 -55 158 -1 6 -5 12 -10 12 -4 0 -7 3 -6 8 4 11 -32 63 -76 109 -51 54
-158 111 -216 115 -3 0 -14 3 -25 7 -11 4 -51 4 -90 0z m115 -1764 c13 -27 42
-92 66 -143 24 -52 44 -97 44 -102 0 -4 7 -13 15 -20 9 -7 13 -15 11 -18 -5
-4 171 -353 253 -502 23 -41 51 -95 64 -120 12 -25 25 -47 28 -50 3 -3 32 -51
65 -108 116 -203 239 -398 327 -520 20 -29 37 -57 37 -62 0 -6 5 -10 10 -10 6
0 10 -4 10 -10 0 -5 8 -19 18 -29 30 -33 42 -50 42 -57 0 -3 18 -29 40 -58 22
-28 47 -60 55 -71 260 -347 614 -696 913 -899 45 -31 87 -56 92 -56 6 0 10 -3
10 -7 0 -5 10 -13 23 -19 12 -6 70 -36 130 -67 59 -31 110 -56 112 -57 3 0 20
-6 38 -13 17 -8 50 -20 72 -27 22 -7 49 -17 60 -22 11 -4 29 -10 40 -13 11 -2
45 -10 75 -18 30 -8 73 -18 95 -22 22 -5 46 -9 53 -11 152 -30 463 -18 610 25
17 5 32 7 32 4 0 -3 7 0 15 7 8 7 15 10 15 7 0 -16 270 93 362 145 37 21 71
38 76 38 5 0 17 9 27 20 10 11 24 20 32 20 7 0 13 4 13 9 0 5 9 12 20 16 11 3
42 24 70 46 27 21 54 39 59 39 5 0 11 4 13 8 2 5 35 35 73 67 63 53 252 238
331 326 17 19 70 84 118 144 47 61 90 115 94 120 5 6 17 24 28 40 10 17 24 35
30 40 12 11 162 238 210 318 16 27 36 61 45 75 9 15 25 43 36 62 11 19 30 51
41 70 61 102 314 600 359 705 23 55 106 242 129 292 8 18 49 117 90 220 42
103 81 199 87 213 6 14 11 27 12 30 13 49 35 69 35 32 0 -10 4 -22 8 -28 5 -5
15 -25 22 -44 16 -42 24 -62 89 -209 28 -63 51 -119 51 -125 0 -5 6 -17 13
-25 8 -9 21 -35 30 -59 34 -86 276 -563 350 -690 20 -35 37 -65 37 -68 0 -4
27 -50 77 -130 7 -10 27 -45 45 -76 18 -32 36 -58 40 -58 5 0 8 -5 8 -10 0 -6
8 -23 18 -38 119 -176 142 -212 142 -220 0 -6 4 -12 9 -14 7 -3 123 -158 146
-196 6 -9 12 -19 15 -22 3 -3 35 -41 70 -85 36 -44 69 -85 75 -91 5 -6 35 -40
65 -75 115 -133 341 -351 447 -431 29 -22 53 -44 53 -49 0 -5 5 -9 11 -9 7 0
31 -16 55 -35 23 -19 45 -35 49 -35 6 0 66 -40 75 -51 3 -3 12 -9 20 -12 8 -4
31 -17 50 -28 19 -12 53 -32 75 -43 22 -12 47 -26 55 -31 8 -5 17 -10 20 -10
3 -1 35 -15 72 -33 70 -32 258 -100 306 -109 15 -3 32 -6 37 -7 6 -2 21 -6 35
-9 14 -4 39 -9 55 -11 17 -3 39 -7 50 -9 76 -17 305 -24 410 -13 33 4 78 8
100 11 32 3 85 12 115 20 3 0 30 7 60 14 78 18 254 79 330 115 36 16 68 30 71
30 11 2 216 121 261 153 26 18 50 33 54 33 3 0 11 6 18 13 7 6 25 21 41 32 15
11 41 31 58 45 l30 24 -5 -24 c-6 -27 -174 -522 -188 -555 -5 -11 -28 -76 -51
-145 -23 -69 -62 -183 -86 -255 -25 -71 -46 -134 -47 -140 -2 -5 -6 -17 -9
-25 -3 -8 -13 -35 -21 -60 -8 -25 -53 -157 -101 -295 -47 -137 -99 -290 -116
-340 -16 -49 -31 -96 -34 -103 -2 -7 -4 -14 -5 -17 0 -3 -7 -19 -15 -35 -8
-16 -15 -33 -15 -37 0 -10 -18 -71 -30 -98 -16 -39 -41 -113 -45 -133 -2 -11
-8 -28 -14 -38 -8 -16 -40 -107 -47 -139 -7 -29 -123 -357 -128 -362 -8 -9
-12365 -7 -12374 1 -4 4 -7 11 -8 14 0 4 -3 14 -7 22 -3 8 -29 85 -57 170 -29
85 -56 164 -61 175 -4 11 -33 94 -64 185 -30 91 -57 170 -59 175 -2 6 -4 13
-5 17 -2 4 -30 85 -63 180 -92 265 -97 282 -98 300 0 9 -3 18 -7 20 -6 2 -96
259 -98 278 0 3 -3 10 -6 15 -7 11 -33 89 -31 92 1 2 -7 23 -18 48 -11 25 -17
45 -14 45 2 0 -2 14 -11 30 -9 17 -13 30 -9 30 4 0 2 6 -4 13 -5 6 -13 28 -17
47 -4 19 -11 37 -16 40 -4 3 -10 17 -13 30 -2 14 -46 144 -96 290 -50 146 -99
290 -108 320 -8 30 -19 57 -23 60 -4 3 -9 17 -11 32 -2 15 -7 30 -11 34 -4 4
-7 14 -7 22 0 9 16 3 48 -20 26 -19 54 -37 62 -41 8 -4 35 -20 60 -36 51 -33
241 -129 270 -136 3 -1 21 -8 40 -16 53 -23 197 -64 213 -61 4 1 7 -2 7 -7 0
-5 8 -8 18 -7 9 2 31 -1 47 -6 17 -5 55 -11 85 -14 30 -2 73 -7 95 -9 39 -5
125 -8 135 -5 20 6 80 3 80 -3 0 -5 5 -5 11 -1 6 4 23 8 38 9 67 6 139 17 170
25 19 5 38 7 42 4 4 -2 10 0 14 6 3 5 15 10 25 10 20 0 181 51 239 76 112 48
323 165 368 204 7 5 15 10 18 10 4 0 13 6 20 13 8 6 25 20 37 29 201 152 388
334 573 557 11 13 32 38 46 55 47 56 194 259 255 351 32 50 62 92 67 93 4 2 7
8 7 13 0 5 21 41 47 81 49 77 124 203 136 228 4 8 17 31 28 50 12 19 31 53 42
75 12 22 24 42 27 45 10 10 228 441 280 554 100 218 113 248 160 356 18 41 37
81 42 88 6 6 7 12 4 12 -4 0 0 12 8 28 9 15 30 63 47 107 17 44 35 84 40 90 5
5 9 14 9 21 0 7 9 34 20 60 l21 47 23 -49 c14 -27 34 -71 46 -99z"/>
</g>
</svg>
